HIERARCHY
ROOT Hips
{
	OFFSET 0 0 0
	CHANNELS 6 Xposition Yposition Zposition Yrotation Xrotation Zrotation
	JOINT Spine
	{
		OFFSET -0 8.08628 -2.5775
		CHANNELS 3 Yrotation Xrotation Zrotation
		JOINT Spine1
		{
			OFFSET -0 8.17342 0
			CHANNELS 3 Yrotation Xrotation Zrotation
			JOINT Spine2
			{
				OFFSET -0 8.17342 0
				CHANNELS 3 Yrotation Xrotation Zrotation
				JOINT Spine3
				{
					OFFSET -0 8.17342 0
					CHANNELS 3 Yrotation Xrotation Zrotation
					JOINT Neck
					{
						OFFSET -0 13.9808 3.5775
						CHANNELS 3 Yrotation Xrotation Zrotation
						JOINT Head
						{
							OFFSET -0 10.1078 0
							CHANNELS 3 Yrotation Xrotation Zrotation
							End Site
							{
								OFFSET 0 15 0
							}
						}
					}
					JOINT LeftShoulder
					{
						OFFSET 1.68464 1.97436 3.36928
						CHANNELS 3 Yrotation Xrotation Zrotation
						JOINT LeftArm
						{
							OFFSET 16.4919 0 0
							CHANNELS 3 Yrotation Xrotation Zrotation
							JOINT LeftForeArm
							{
								OFFSET 23.9853 0 0
								CHANNELS 3 Yrotation Xrotation Zrotation
								JOINT LeftHand
								{
									OFFSET 23.7665 0 0
									CHANNELS 3 Yrotation Xrotation Zrotation
									JOINT LeftHandThumb1
									{
										OFFSET 4.73892 0 0.95067
										CHANNELS 3 Yrotation Xrotation Zrotation
										JOINT LeftHandThumb2
										{
											OFFSET 3 0 1
											CHANNELS 3 Yrotation Xrotation Zrotation
											JOINT LeftHandThumb3
											{
												OFFSET 2.1 0 0
												CHANNELS 3 Yrotation Xrotation Zrotation
												JOINT LeftHandThumb4
												{
													OFFSET 1.305 0 0
													CHANNELS 3 Yrotation Xrotation Zrotation
													End Site
													{
														OFFSET -0 0 0
													}
												}
											}
										}
									}
									JOINT LeftHandIndex1
									{
										OFFSET 9.00175 0 2.03831
										CHANNELS 3 Yrotation Xrotation Zrotation
										JOINT LeftHandIndex2
										{
											OFFSET 3.5 0 0
											CHANNELS 3 Yrotation Xrotation Zrotation
											JOINT LeftHandIndex3
											{
												OFFSET 2.45 0 0
												CHANNELS 3 Yrotation Xrotation Zrotation
												JOINT LeftHandIndex4
												{
													OFFSET 1.5225 0 0
													CHANNELS 3 Yrotation Xrotation Zrotation
													End Site
													{
														OFFSET -0 0 0
													}
												}
											}
										}
									}
									JOINT LeftHandMiddle1
									{
										OFFSET 8.95394 0 0.459792
										CHANNELS 3 Yrotation Xrotation Zrotation
										JOINT LeftHandMiddle2
										{
											OFFSET 4.6 0 0
											CHANNELS 3 Yrotation Xrotation Zrotation
											JOINT LeftHandMiddle3
											{
												OFFSET 3.22 0 0
												CHANNELS 3 Yrotation Xrotation Zrotation
												JOINT LeftHandMiddle4
												{
													OFFSET 2.001 0 0
													CHANNELS 3 Yrotation Xrotation Zrotation
													End Site
													{
														OFFSET -0 0 0
													}
												}
											}
										}
									}
									JOINT LeftHandRing1
									{
										OFFSET 8.60612 0 -1.11872
										CHANNELS 3 Yrotation Xrotation Zrotation
										JOINT LeftHandRing2
										{
											OFFSET 3.75 0 0
											CHANNELS 3 Yrotation Xrotation Zrotation
											JOINT LeftHandRing3
											{
												OFFSET 2.625 0 0
												CHANNELS 3 Yrotation Xrotation Zrotation
												JOINT LeftHandRing4
												{
													OFFSET 1.63125 0 0
													CHANNELS 3 Yrotation Xrotation Zrotation
													End Site
													{
														OFFSET -0 0 0
													}
												}
											}
										}
									}
									JOINT LeftHandPinky1
									{
										OFFSET 7.9583 0 -2.69724
										CHANNELS 3 Yrotation Xrotation Zrotation
										JOINT LeftHandPinky2
										{
											OFFSET 2.875 0 0
											CHANNELS 3 Yrotation Xrotation Zrotation
											JOINT LeftHandPinky3
											{
												OFFSET 2.0125 0 0
												CHANNELS 3 Yrotation Xrotation Zrotation
												JOINT LeftHandPinky4
												{
													OFFSET 1.25062 0 0
													CHANNELS 3 Yrotation Xrotation Zrotation
													End Site
													{
														OFFSET -0 0 0
													}
												}
											}
										}
									}
								}
							}
						}
					}
					JOINT RightShoulder
					{
						OFFSET -1.68464 1.97436 3.36928
						CHANNELS 3 Yrotation Xrotation Zrotation
						JOINT RightArm
						{
							OFFSET -16.4919 0 0
							CHANNELS 3 Yrotation Xrotation Zrotation
							JOINT RightForeArm
							{
								OFFSET -23.9853 0 0
								CHANNELS 3 Yrotation Xrotation Zrotation
								JOINT RightHand
								{
									OFFSET -23.7665 0 0
									CHANNELS 3 Yrotation Xrotation Zrotation
									JOINT RightHandThumb1
									{
										OFFSET -4.49364 0 2.24179
										CHANNELS 3 Yrotation Xrotation Zrotation
										JOINT RightHandThumb2
										{
											OFFSET -3 0 1
											CHANNELS 3 Yrotation Xrotation Zrotation
											JOINT RightHandThumb3
											{
												OFFSET -2.1 0 0
												CHANNELS 3 Yrotation Xrotation Zrotation
												JOINT RightHandThumb4
												{
													OFFSET -1.305 0 0
													CHANNELS 3 Yrotation Xrotation Zrotation
													End Site
													{
														OFFSET -0 0 0
													}
												}
											}
										}
									}
									JOINT RightHandIndex1
									{
										OFFSET -8.61172 0 3.12336
										CHANNELS 3 Yrotation Xrotation Zrotation
										JOINT RightHandIndex2
										{
											OFFSET -3.5 0 0
											CHANNELS 3 Yrotation Xrotation Zrotation
											JOINT RightHandIndex3
											{
												OFFSET -2.45 0 0
												CHANNELS 3 Yrotation Xrotation Zrotation
												JOINT RightHandIndex4
												{
													OFFSET -1.5225 0 0
													CHANNELS 3 Yrotation Xrotation Zrotation
													End Site
													{
														OFFSET -0 0 0
													}
												}
											}
										}
									}
									JOINT RightHandMiddle1
									{
										OFFSET -8.49707 0 1.18186
										CHANNELS 3 Yrotation Xrotation Zrotation
										JOINT RightHandMiddle2
										{
											OFFSET -4.6 0 0
											CHANNELS 3 Yrotation Xrotation Zrotation
											JOINT RightHandMiddle3
											{
												OFFSET -3.22 0 0
												CHANNELS 3 Yrotation Xrotation Zrotation
												JOINT RightHandMiddle4
												{
													OFFSET -2.001 0 0
													CHANNELS 3 Yrotation Xrotation Zrotation
													End Site
													{
														OFFSET -0 0 0
													}
												}
											}
										}
									}
									JOINT RightHandRing1
									{
										OFFSET -8.08241 0 -0.759647
										CHANNELS 3 Yrotation Xrotation Zrotation
										JOINT RightHandRing2
										{
											OFFSET -3.75 0 0
											CHANNELS 3 Yrotation Xrotation Zrotation
											JOINT RightHandRing3
											{
												OFFSET -2.625 0 0
												CHANNELS 3 Yrotation Xrotation Zrotation
												JOINT RightHandRing4
												{
													OFFSET -1.63125 0 0
													CHANNELS 3 Yrotation Xrotation Zrotation
													End Site
													{
														OFFSET -0 0 0
													}
												}
											}
										}
									}
									JOINT RightHandPinky1
									{
										OFFSET -7.36776 0 -2.70115
										CHANNELS 3 Yrotation Xrotation Zrotation
										JOINT RightHandPinky2
										{
											OFFSET -2.875 0 0
											CHANNELS 3 Yrotation Xrotation Zrotation
											JOINT RightHandPinky3
											{
												OFFSET -2.0125 0 0
												CHANNELS 3 Yrotation Xrotation Zrotation
												JOINT RightHandPinky4
												{
													OFFSET -1.25062 0 0
													CHANNELS 3 Yrotation Xrotation Zrotation
													End Site
													{
														OFFSET -0 0 0
													}
												}
											}
										}
									}
								}
							}
						}
					}
				}
			}
		}
	}
	JOINT LeftUpLeg
	{
		OFFSET 10.1078 -3.36928 3
		CHANNELS 3 Yrotation Xrotation Zrotation
		JOINT LeftLeg
		{
			OFFSET -0 -43.6821 2.3585
			CHANNELS 3 Yrotation Xrotation Zrotation
			JOINT LeftFoot
			{
				OFFSET -0 -36.6228 -2.3585
				CHANNELS 3 Yrotation Xrotation Zrotation
				JOINT LeftToeBase
				{
					OFFSET -0 -9.28843 9.36804
					CHANNELS 3 Yrotation Xrotation Zrotation
					End Site
					{
						OFFSET 0 0 5
					}
				}
			}
		}
	}
	JOINT RightUpLeg
	{
		OFFSET -10.1078 -3.36928 3
		CHANNELS 3 Yrotation Xrotation Zrotation
		JOINT RightLeg
		{
			OFFSET -0 -43.6821 2.3585
			CHANNELS 3 Yrotation Xrotation Zrotation
			JOINT RightFoot
			{
				OFFSET -0 -36.6228 -2.3585
				CHANNELS 3 Yrotation Xrotation Zrotation
				JOINT RightToeBase
				{
					OFFSET -0 -9.28843 9.36804
					CHANNELS 3 Yrotation Xrotation Zrotation
					End Site
					{
						OFFSET 0 0 5
					}
				}
			}
		}
	}
}
MOTION
Frames: 5
Frame Time: 0.00833333
0 94.002965 0 0 0 0 0 0 0 0 0 0 0 0 0 0 0 0 0 0 0 0 0 0 0 0 0 0 0 0 0 0 0 0 0 0 0 0 0 0 0 0 0 0 0 0 0 0 0 0 0 0 0 0 0 0 0 0 0 0 0 0 0 0 0 0 0 0 0 0 0 0 0 0 0 0 0 0 0 0 0 0 0 0 0 0 0 0 0 0 0 0 0 0 0 0 0 0 0 0 0 0 0 0 0 0 0 0 0 0 0 0 0 0 0 0 0 0 0 0 0 0 0 0 0 0 0 0 0 0 0 0 0 0 0 0 0 0 0 0 0 0 0 0 0 0 0 0 0 0 0 0 0 0 0 0 0 0 0 0 0 0 0 0 0 0 0 0 0 0 0 0 0 0 0 0 0 0 0 0 0 0 0 0 0 0 0 0 0 0 0 0
-31.433560 93.303137 1.193974 5.476414 1.889939 0.953861 0.056420 -1.731768 -0.540480 0.128770 -1.440167 -0.373140 0.034055 -0.987417 -0.180080 0.048655 -0.767249 -0.084824 -2.973034 -2.431008 0.306545 -1.410251 11.815214 -1.113847 5.516904 4.005765 12.015934 -6.732485 0.663601 -8.773942 -3.983253 -0.862327 -3.796483 10.205380 10.797778 -14.185051 33.939025 10.194043 8.407130 39.223547 11.224260 10.158901 -3.325851 -22.654996 4.285755 -0.000008 0.000004 12.500001 -0.000008 0.000004 12.500001 0.000000 0.000001 10.000000 -0.000003 -0.000000 4.999997 -0.000012 -0.000001 -8.265065 -0.000012 -0.000001 -8.265065 0.000002 0.000006 -6.612047 -0.000005 0.000000 -3.306029 -0.000003 0.000004 3.833383 -0.000003 0.000004 3.833383 -0.000012 -0.000003 3.066707 0.000007 0.000001 1.533353 -0.000019 0.000004 2.594437 -0.000019 0.000004 2.594437 -0.000005 0.000004 2.075551 0.000010 -0.000003 1.037776 -166.277147 -0.019999 -179.833798 -8.822972 4.748163 -10.369024 15.867383 -3.181587 5.327662 4.406355 -0.727845 1.921540 -9.449896 8.202370 25.321586 4.759254 17.613673 -3.820753 5.403399 20.280490 -4.289916 24.281011 -33.748371 -20.871964 -0.000007 0.000001 -7.790936 -0.000007 0.000001 -7.790936 -0.000000 -0.000000 -6.232748 -0.000002 0.000003 -3.116376 -0.000003 -0.000000 -4.101109 -0.000003 -0.000000 -4.101109 -0.000000 -0.000002 -3.280885 -0.000001 0.000002 -1.640445 0.000002 0.000000 -9.899665 0.000002 0.000000 -9.899665 0.000004 -0.000002 -7.919731 0.000000 0.000002 -3.959861 0.000003 0.000001 17.421821 0.000003 0.000001 17.421821 0.000008 -0.000002 13.937457 -0.000002 0.000004 6.968731 33.939025 10.194043 8.407130 9.366699 5.921554 -1.254973 0.000000 -1.315396 0.000000 11.737693 -2.792037 4.073412 0.000000 -6.073918 0.000000 1.538695 5.142936 -1.530267 0.000000 -1.189002 0.000000 -12.159755 -4.169734 -4.218382 0.000000 -5.458119 0.000000
-31.439398 93.302002 1.197207 5.483083 1.893133 0.945646 0.050656 -1.738818 -0.538240 0.122377 -1.426418 -0.366458 0.036471 -0.977131 -0.164641 0.050270 -0.780325 -0.078372 -2.954181 -2.429277 0.272432 -1.396838 11.811832 -1.089904 5.525516 4.007208 12.005459 -6.756144 0.680028 -8.784482 -3.983313 -0.877333 -3.789483 10.198451 10.764780 -14.174866 33.939025 10.194043 8.407130 39.223547 11.224260 10.158901 -3.325851 -22.654996 4.285755 -0.000008 0.000004 12.500001 -0.000008 0.000004 12.500001 0.000000 0.000001 10.000000 -0.000003 -0.000000 4.999997 -0.000012 -0.000001 -8.265065 -0.000012 -0.000001 -8.265065 0.000002 0.000006 -6.612047 -0.000005 0.000000 -3.306029 -0.000003 0.000004 3.833383 -0.000003 0.000004 3.833383 -0.000012 -0.000003 3.066707 0.000007 0.000001 1.533353 -0.000019 0.000004 2.594437 -0.000019 0.000004 2.594437 -0.000005 0.000004 2.075551 0.000010 -0.000003 1.037776 -166.277147 -0.019999 -179.833798 -8.842409 4.757191 -10.403185 15.875549 -3.230605 5.345030 4.400460 -0.743119 1.924126 -9.465014 8.221198 25.333762 4.759254 17.613673 -3.820753 5.403399 20.280490 -4.289916 24.281011 -33.748371 -20.871964 -0.000007 0.000001 -7.790936 -0.000007 0.000001 -7.790936 -0.000000 -0.000000 -6.232748 -0.000002 0.000003 -3.116376 -0.000003 -0.000000 -4.101109 -0.000003 -0.000000 -4.101109 -0.000000 -0.000002 -3.280885 -0.000001 0.000002 -1.640445 0.000002 0.000000 -9.899665 0.000002 0.000000 -9.899665 0.000004 -0.000002 -7.919731 0.000000 0.000002 -3.959861 0.000003 0.000001 17.421821 0.000003 0.000001 17.421821 0.000008 -0.000002 13.937457 -0.000002 0.000004 6.968731 33.939025 10.194043 8.407130 9.373552 5.923998 -1.244111 0.000000 -1.324732 0.000000 11.729321 -2.796806 4.095586 0.000000 -6.051036 0.000000 1.524831 5.143897 -1.518226 0.000000 -1.192503 0.000000 -12.148671 -4.173991 -4.239197 0.000000 -5.436333 0.000000
-31.443719 93.305933 1.202788 5.481727 1.896637 0.958075 0.051750 -1.739677 -0.537487 0.123073 -1.425565 -0.371769 0.038631 -0.995023 -0.180355 0.052395 -0.753901 -0.082913 -2.948704 -2.424762 0.322217 -1.402976 11.795514 -1.138434 5.528238 4.002189 12.015209 -6.784858 0.672982 -8.776544 -3.958780 -0.910901 -3.793694 10.184398 10.770998 -14.160761 33.929899 10.210075 8.418879 39.213602 11.242123 10.173165 -3.304768 -22.671285 4.244911 -0.000002 0.000000 12.499997 -0.000002 0.000000 12.499997 0.000005 0.000004 10.000006 0.000000 -0.000000 4.999995 0.000003 0.000000 -8.264679 0.000003 0.000000 -8.264679 -0.000002 0.000000 -6.611735 0.000002 0.000003 -3.305873 0.000003 -0.000000 3.836268 0.000003 -0.000000 3.836268 -0.000009 -0.000004 3.069015 0.000010 0.000007 1.534507 0.000005 0.000007 2.594744 0.000005 0.000007 2.594744 -0.000015 -0.000007 2.075796 0.000007 0.000004 1.037899 -166.277226 -0.019999 -179.833799 -8.855370 4.762954 -10.381852 15.891103 -3.179789 5.340710 4.377537 -0.782738 1.916419 -9.459226 8.181912 25.356811 4.758616 17.610498 -3.826009 5.402529 20.276922 -4.296042 24.236221 -33.769420 -20.668527 -0.000003 -0.000002 -7.701686 -0.000003 -0.000002 -7.701686 -0.000002 -0.000002 -6.161351 0.000002 0.000003 -3.080676 -0.000002 -0.000000 -4.088792 -0.000002 -0.000000 -4.088792 -0.000000 -0.000003 -3.271034 0.000000 0.000005 -1.635519 0.000001 0.000000 -9.901656 0.000001 0.000000 -9.901656 -0.000001 -0.000003 -7.921324 -0.000001 0.000002 -3.960664 -0.000002 0.000000 17.414323 -0.000002 0.000000 17.414323 0.000004 -0.000001 13.931461 -0.000002 0.000003 6.965724 33.929899 10.210075 8.418879 9.384645 5.924230 -1.246873 0.000000 -1.322361 0.000000 11.705992 -2.770447 4.041295 0.000000 -6.056047 0.000000 1.532624 5.152114 -1.527412 0.000000 -1.211213 0.000000 -12.153300 -4.154920 -4.241347 0.000000 -5.441959 0.000000
-31.448871 93.305151 1.203839 5.488834 1.898557 0.942644 0.052344 -1.738946 -0.521427 0.122613 -1.420412 -0.361791 0.031441 -0.982598 -0.178031 0.044667 -0.771817 -0.084649 -2.934616 -2.406945 0.312448 -1.396718 11.785003 -1.147433 5.519215 4.001375 12.022970 -6.760721 0.675966 -8.798155 -3.981238 -0.916068 -3.801320 10.184357 10.753661 -14.136875 33.929899 10.210075 8.418879 39.213602 11.242123 10.173165 -3.304768 -22.671285 4.244911 -0.000002 0.000000 12.499997 -0.000002 0.000000 12.499997 0.000005 0.000004 10.000006 0.000000 -0.000000 4.999995 0.000003 0.000000 -8.264679 0.000003 0.000000 -8.264679 -0.000002 0.000000 -6.611735 0.000002 0.000003 -3.305873 0.000003 -0.000000 3.836268 0.000003 -0.000000 3.836268 -0.000009 -0.000004 3.069015 0.000010 0.000007 1.534507 0.000005 0.000007 2.594744 0.000005 0.000007 2.594744 -0.000015 -0.000007 2.075796 0.000007 0.000004 1.037899 -166.277226 -0.019999 -179.833799 -8.850313 4.779138 -10.401024 15.873580 -3.199902 5.349511 4.385306 -0.758957 1.919828 -9.470448 8.139817 25.379014 4.758616 17.610498 -3.826009 5.402529 20.276922 -4.296042 24.236221 -33.769420 -20.668527 -0.000003 -0.000002 -7.701686 -0.000003 -0.000002 -7.701686 -0.000002 -0.000002 -6.161351 0.000002 0.000003 -3.080676 -0.000002 -0.000000 -4.088792 -0.000002 -0.000000 -4.088792 -0.000000 -0.000003 -3.271034 0.000000 0.000005 -1.635519 0.000001 0.000000 -9.901656 0.000001 0.000000 -9.901656 -0.000001 -0.000003 -7.921324 -0.000001 0.000002 -3.960664 -0.000002 0.000000 17.414323 -0.000002 0.000000 17.414323 0.000004 -0.000001 13.931461 -0.000002 0.000003 6.965724 33.929899 10.210075 8.418879 9.360612 5.927790 -1.234382 0.000000 -1.342306 0.000000 11.730442 -2.790294 4.080154 0.000000 -6.036539 0.000000 1.521457 5.153264 -1.510412 0.000000 -1.216086 0.000000 -12.151948 -4.169036 -4.202316 0.000000 -5.428635 0.000000
